<svg width="472.6800048828125px" height="148.32000122070312px" xmlns="http://www.w3.org/2000/svg" viewBox="13.659997558593744 0.8399993896484403 472.6800048828125 148.32000122070312" style="background: none; --darkreader-inline-bgcolor: rgba(0, 0, 0, 0); --darkreader-inline-bgimage: none;" data-darkreader-inline-bgcolor="" data-darkreader-inline-bgimage="" preserveAspectRatio="xMidYMid"><defs><filter id="editing-extrude-glow"><feFlood flood-color="#5e6fa3" result="flood-1"></feFlood><feMorphology operator="erode" radius="1" in="SourceAlpha" result="erode"></feMorphology><feComposite operator="in" in="flood-1" in2="erode" result="comp1"></feComposite><feConvolveMatrix order="4,4" divisor="1" in="comp1" result="convolve" kernelMatrix="0 0 0 0 0 0 0 0 1 1 1 1 0 0 0 0"></feConvolveMatrix><feOffset dx="-4" dy="0" in="convolve" result="extrude"></feOffset><feComposite operator="in" in="flood-1" in2="extrude" result="comp-extrude"></feComposite><feFlood flood-color="#3b4368" result="flood-2"></feFlood><feComposite operator="in" in="flood-2" in2="SourceAlpha" result="comp2"></feComposite><feMorphology operator="dilate" radius="1" in="comp2" result="dilate"></feMorphology><feOffset dx="-6" dy="0" in="dilate" result="offset"></feOffset><feGaussianBlur in="offset" stdDeviation="5.8" result="blur"></feGaussianBlur><feComponentTransfer in="blur" result="shadow"><feFuncA type="linear" slope="0.8" intercept="-0.2"></feFuncA></feComponentTransfer><feMerge><feMergeNode in="shadow"></feMergeNode><feMergeNode in="comp-extrude"></feMergeNode><feMergeNode in="SourceGraphic"></feMergeNode></feMerge></filter></defs><g filter="url(#editing-extrude-glow)"><g transform="translate(84.51998841762543, 104.59999656677246)"><path d="M35.52-12.32L35.52-12.32L35.52-12.32Q37.04-10.40 37.04-7.28L37.04-7.28L37.04-7.28Q37.04-2.96 33.84-0.68L33.84-0.68L33.84-0.68Q30.64 1.60 25.60 1.60L25.60 1.60L25.60 1.60Q22.72 1.60 18.32 0.96L18.32 0.96L18.32 0.96Q9.68-0.40 7.04-0.40L7.04-0.40L7.04-0.40Q4.40-0.40 3.36-0.28L3.36-0.28L3.36-0.28Q2.32-0.16 0.64 0L0.64 0L10.48-52.80L44.96-52.80L44.96-52.80Q44.96-47.92 42.60-45.36L42.60-45.36L42.60-45.36Q40.24-42.80 35.60-42.80L35.60-42.80L35.60-42.80Q30.96-42.80 26.24-44.96L26.24-44.96L23.76-30.96L38-30.96L38-30.96Q38-26.72 35.92-24.36L35.92-24.36L35.92-24.36Q33.84-22 30.36-22L30.36-22L30.36-22Q26.88-22 24.72-22.80L24.72-22.80L24.72-22.80Q22.56-23.60 22.32-23.84L22.32-23.84L19.44-8.72L19.44-8.72Q21.36-8.48 24.96-8.48L24.96-8.48L24.96-8.48Q31.12-8.48 35.52-12.32ZM63.52-4.40L63.52-4.40L63.52-4.40Q61.04 1.60 53.12 1.60L53.12 1.60L53.12 1.60Q49.12 1.60 46.56-1.20L46.56-1.20L46.56-1.20Q44.48-3.52 44.48-6.16L44.48-6.16L44.48-6.16Q44.48-12.16 47.28-25.28L47.28-25.28L53.12-56L69.36-57.60L61.60-17.12L61.60-17.12Q60.24-11.20 60.24-9.12L60.24-9.12L60.24-9.12Q60.24-4.56 63.52-4.40ZM71.60-8L71.60-8L71.60-8Q71.60-10.16 72.72-15.60L72.72-15.60L76.96-37.20L72.24-37.20L72.56-39.60L72.56-39.60Q82.16-42.48 91.44-49.52L91.44-49.52L95.28-49.52L93.36-40.80L99.60-40.80L98.88-37.20L92.72-37.20L88.64-15.60L88.64-15.60Q87.60-10.64 87.60-8.96L87.60-8.96L87.60-8.96Q87.60-5.12 90.96-4.32L90.96-4.32L90.96-4.32Q90.16-1.60 87.28 0L87.28 0L87.28 0Q84.40 1.60 80.32 1.60L80.32 1.60L80.32 1.60Q76.24 1.60 73.92-0.96L73.92-0.96L73.92-0.96Q71.60-3.52 71.60-8ZM131.28-13.52L131.28-13.52L131.28-13.52Q133.28-12.16 133.28-9.16L133.28-9.16L133.28-9.16Q133.28-6.16 131.76-4.24L131.76-4.24L131.76-4.24Q130.24-2.32 127.76-1.04L127.76-1.04L127.76-1.04Q122.64 1.60 117.12 1.60L117.12 1.60L117.12 1.60Q111.60 1.60 108.36 0.40L108.36 0.40L108.36 0.40Q105.12-0.80 102.96-3.04L102.96-3.04L102.96-3.04Q98.72-7.28 98.72-15.04L98.72-15.04L98.72-15.04Q98.72-27.12 105.28-34.48L105.28-34.48L105.28-34.48Q112.32-42.40 124.56-42.40L124.56-42.40L124.56-42.40Q132.16-42.40 135.92-39.20L135.92-39.20L135.92-39.20Q138.72-36.80 138.72-32.88L138.72-32.88L138.72-32.88Q138.72-18.80 114.40-18.80L114.40-18.80L114.40-18.80Q114.08-16.72 114.08-14.96L114.08-14.96L114.08-14.96Q114.08-11.28 115.72-9.88L115.72-9.88L115.72-9.88Q117.36-8.48 120.40-8.48L120.40-8.48L120.40-8.48Q123.44-8.48 126.68-9.88L126.68-9.88L126.68-9.88Q129.92-11.28 131.28-13.52ZM114.96-22.24L114.96-22.24L114.96-22.24Q120.64-22.24 123.92-25.76L123.92-25.76L123.92-25.76Q127.20-29.12 127.20-34.48L127.20-34.48L127.20-34.48Q127.20-36.32 126.52-37.32L126.52-37.32L126.52-37.32Q125.84-38.32 124.48-38.32L124.48-38.32L124.48-38.32Q123.12-38.32 121.96-37.80L121.96-37.80L121.96-37.80Q120.80-37.28 119.60-35.52L119.60-35.52L119.60-35.52Q116.64-31.52 114.96-22.24ZM166.48-22.48L166.48-22.48L166.48-22.48Q169.36-27.60 169.36-32.80L169.36-32.80L169.36-32.80Q169.36-36.24 166.88-36.24L166.88-36.24L166.88-36.24Q164.96-36.24 162.96-32.96L162.96-32.96L162.96-32.96Q160.88-29.68 160.24-25.44L160.24-25.44L156.08 0L139.52 1.60L147.68-40.80L160.88-42.40L159.44-34.32L159.44-34.32Q163.36-42.40 172.16-42.40L172.16-42.40L172.16-42.40Q176.80-42.40 179.32-40L179.32-40L179.32-40Q181.84-37.60 181.84-32.68L181.84-32.68L181.84-32.68Q181.84-27.76 178.60-24.64L178.60-24.64L178.60-24.64Q175.36-21.52 169.84-21.52L169.84-21.52L169.84-21.52Q167.44-21.52 166.48-22.48ZM184.40-8L184.40-8L184.40-8Q184.40-10.16 185.52-15.60L185.52-15.60L189.76-37.20L185.04-37.20L185.36-39.60L185.36-39.60Q194.96-42.48 204.24-49.52L204.24-49.52L208.08-49.52L206.16-40.80L212.40-40.80L211.68-37.20L205.52-37.20L201.44-15.60L201.44-15.60Q200.40-10.64 200.40-8.96L200.40-8.96L200.40-8.96Q200.40-5.12 203.76-4.32L203.76-4.32L203.76-4.32Q202.96-1.60 200.08 0L200.08 0L200.08 0Q197.20 1.60 193.12 1.60L193.12 1.60L193.12 1.60Q189.04 1.60 186.72-0.96L186.72-0.96L186.72-0.96Q184.40-3.52 184.40-8ZM215.16-2.40L215.16-2.40L215.16-2.40Q213.28-4.48 212.44-7.76L212.44-7.76L212.44-7.76Q211.60-11.04 211.60-16.40L211.60-16.40L211.60-16.40Q211.60-21.76 213.44-26.64L213.44-26.64L213.44-26.64Q215.28-31.52 218.64-35.04L218.64-35.04L218.64-35.04Q225.52-42.40 236.88-42.40L236.88-42.40L236.88-42.40Q240.96-42.40 243.92-41.04L243.92-41.04L257.60-42.40L251.68-11.20L251.68-11.20Q251.44-10.24 251.44-8.48L251.44-8.48L251.44-8.48Q251.44-6.72 252.52-5.60L252.52-5.60L252.52-5.60Q253.60-4.48 255.20-4.32L255.20-4.32L255.20-4.32Q254.40-1.60 251.48 0L251.48 0L251.48 0Q248.56 1.60 245.28 1.60L245.28 1.60L245.28 1.60Q242.00 1.60 239.80 0.36L239.80 0.36L239.80 0.36Q237.60-0.88 236.96-2.96L236.96-2.96L236.96-2.96Q235.68-0.96 232.96 0.32L232.96 0.32L232.96 0.32Q230.24 1.60 226.60 1.60L226.60 1.60L226.60 1.60Q222.96 1.60 220.00 0.64L220.00 0.64L220.00 0.64Q217.04-0.32 215.16-2.40ZM232.04-34.88L232.04-34.88L232.04-34.88Q231.12-33.44 230.32-31L230.32-31L230.32-31Q229.52-28.56 228.20-22.04L228.20-22.04L228.20-22.04Q226.88-15.52 226.88-10.88L226.88-10.88L226.88-10.88Q226.88-6.24 227.60-4.88L227.60-4.88L227.60-4.88Q228.32-3.52 229.60-3.52L229.60-3.52L229.60-3.52Q232.16-3.52 234.04-5.96L234.04-5.96L234.04-5.96Q235.92-8.40 236.64-12.72L236.64-12.72L240.88-36.16L240.88-36.16Q239.20-37.60 237.24-37.60L237.24-37.60L237.24-37.60Q235.28-37.60 234.12-36.96L234.12-36.96L234.12-36.96Q232.96-36.32 232.04-34.88ZM263.20-8L263.20-8L263.20-8Q263.20-10.16 264.32-15.60L264.32-15.60L268.56-37.20L263.84-37.20L264.16-39.60L264.16-39.60Q273.76-42.48 283.04-49.52L283.04-49.52L286.88-49.52L284.96-40.80L291.20-40.80L290.48-37.20L284.32-37.20L280.24-15.60L280.24-15.60Q279.20-10.64 279.20-8.96L279.20-8.96L279.20-8.96Q279.20-5.12 282.56-4.32L282.56-4.32L282.56-4.32Q281.76-1.60 278.88 0L278.88 0L278.88 0Q276 1.60 271.92 1.60L271.92 1.60L271.92 1.60Q267.84 1.60 265.52-0.96L265.52-0.96L265.52-0.96Q263.20-3.52 263.20-8ZM322.88-13.52L322.88-13.52L322.88-13.52Q324.88-12.16 324.88-9.16L324.88-9.16L324.88-9.16Q324.88-6.16 323.36-4.24L323.36-4.24L323.36-4.24Q321.84-2.32 319.36-1.04L319.36-1.04L319.36-1.04Q314.24 1.60 308.72 1.60L308.72 1.60L308.72 1.60Q303.20 1.60 299.96 0.40L299.96 0.40L299.96 0.40Q296.72-0.80 294.56-3.04L294.56-3.04L294.56-3.04Q290.32-7.28 290.32-15.04L290.32-15.04L290.32-15.04Q290.32-27.12 296.88-34.48L296.88-34.48L296.88-34.48Q303.92-42.40 316.16-42.40L316.16-42.40L316.16-42.40Q323.76-42.40 327.52-39.20L327.52-39.20L327.52-39.20Q330.32-36.80 330.32-32.88L330.32-32.88L330.32-32.88Q330.32-18.80 306-18.80L306-18.80L306-18.80Q305.68-16.72 305.68-14.96L305.68-14.96L305.68-14.96Q305.68-11.28 307.32-9.88L307.32-9.88L307.32-9.88Q308.96-8.48 312-8.48L312-8.48L312-8.48Q315.04-8.48 318.28-9.88L318.28-9.88L318.28-9.88Q321.52-11.28 322.88-13.52ZM306.56-22.24L306.56-22.24L306.56-22.24Q312.24-22.24 315.52-25.76L315.52-25.76L315.52-25.76Q318.80-29.12 318.80-34.48L318.80-34.48L318.80-34.48Q318.80-36.32 318.12-37.32L318.12-37.32L318.12-37.32Q317.44-38.32 316.08-38.32L316.08-38.32L316.08-38.32Q314.72-38.32 313.56-37.80L313.56-37.80L313.56-37.80Q312.40-37.28 311.20-35.52L311.20-35.52L311.20-35.52Q308.24-31.52 306.56-22.24Z" fill="#689cc5" style="--darkreader-inline-fill: #315d7f;" data-darkreader-inline-fill=""></path></g></g><style>text {
  font-size: 64px;
  font-family: Arial Black;
  dominant-baseline: central;
  text-anchor: middle;
}</style><style class="darkreader darkreader--sync" media="screen"></style></svg>