<?xml version="1.0" standalone="yes"?>
<svg xmlns="http://www.w3.org/2000/svg" width="296" height="300">
<path style="fill:#010101; stroke:none;" d="M0 0L0 114L1 114C2.80016 91.9602 19.6344 71.3953 38 60.4529C44.111 56.812 54.2461 55.7975 59.3009 51.1566C64.2075 46.6519 66.1413 37.5075 70.159 32C81.4962 16.4586 101.09 1.8681 121 1C111.211 -3.10773 94.634 0 84 0L0 0z"/>
<path style="fill:#ffffff; stroke:none;" d="M121 0.428253C101.176 3.2681 83.0098 14.0054 70.8997 30C66.313 36.0579 64.3904 45.1262 59.3009 50.49C54.4539 55.5982 43.2392 56.7355 37 60.4529C21.4853 69.6967 9.77367 83.9881 3.6983 101C-2.70032 118.917 -1.59304 140.619 5.87268 158C8.74411 164.685 16.0124 171.085 17.5478 178C19.4273 186.465 14.2922 197.815 15.1698 207C18.079 237.447 38.0884 263.221 67 273.305C75.5209 276.277 84.05 277.003 93 277C97.1229 276.998 103.217 275.347 107 277.067C113.467 280.007 118.737 286.835 125 290.546C140.066 299.474 158.782 301.948 176 299.711C195.489 297.178 213.628 285.639 225.241 270C229.61 264.115 232.159 253.405 237.499 248.843C246.293 241.332 260.452 239.873 270 231.7C293.339 211.722 302.355 178.158 292.645 149C289.745 140.292 279.2 129.981 278.31 121.576C277.397 112.952 281.358 103.052 280.961 94C280.034 72.8788 268.172 52.3909 252 39.311C240.3 29.8479 225.007 24.123 210 23.0895C204.152 22.6867 194.654 25.6635 189.424 23.5447C183.202 21.0237 177.917 13.9822 172 10.4529C156.899 1.44611 138.411 -2.06595 121 0.428253z"/>
<path style="fill:#010101; stroke:none;" d="M144 0L144 1C154.934 1.89304 166.061 6.82907 175 13.0394C179.496 16.1633 183.88 21.7803 189 23.6867C194.139 25.6002 202.401 22.7938 208 23.0394C218.455 23.4979 229.762 26.591 239 31.4892C261.88 43.6208 279.107 67.8157 280.91 94C281.521 102.859 276.127 114.926 278.262 123C281.857 136.592 293.742 145.598 295 161L296 161L296 0L144 0M101 159L101 98C101 90.4252 98.8064 78.7004 103.009 72.0432C106.796 66.0453 116.007 62.5716 122 59.1505C136.995 50.5905 152.589 42.5056 167 33C141.56 8.65616 96.4199 22.3156 82.3202 52C74.1917 69.113 77 89.5826 77 108C77 117.215 73.123 137.774 78.0278 145.621C81.6108 151.354 94.7228 157.014 101 159M116 114C134.699 107.193 152.883 93.7468 170 83.6034C176.316 79.8603 186.385 71.4384 194 71.858C200.723 72.2285 208.344 78.689 214 82.0108C228.779 90.691 243.48 100.745 259 108C266.482 76.5746 239.152 47.0876 209 44.1698C183.846 41.7355 161.644 59.9757 141 71.7191C134.475 75.431 121.143 80.1852 117.028 86.5293C113.204 92.4242 116 107.068 116 114M55 75C23.1201 93.6248 8.00859 131.529 33.8079 162.985C43.4879 174.788 59.126 180.974 72 188.603C80.2734 193.506 88.662 198.208 97 203C100.437 204.975 104.847 208.588 109 208.385C116.942 207.997 125.877 199.326 133 196L133 195C114.331 185.167 96.2493 174.016 78 163.424C71.2304 159.495 60.181 155.725 57.0093 147.996C54.8475 142.728 56 135.588 56 130L56 92C56 86.6497 57.0851 79.969 55 75M163 104L163 105L218 136.799L238.821 151.043L240 173L240 225C273.545 215.336 284.427 171.75 267.184 144C254.974 124.348 228.436 114.007 209 102.85C203.367 99.6169 193.67 91.3566 187 91.6929C179.131 92.0896 170.268 100.958 163 104M146 114.859C139.233 116.807 119.306 126.492 116.603 133.105C113.791 139.985 116 151.61 116 159C116 161.837 115.32 165.891 117.028 168.366C120.254 173.041 129.145 176.078 134 178.85C138.3 181.304 144.782 186.943 150 185.573C156.268 183.926 177.83 173.113 179.682 166.79C181.871 159.318 180 148.778 180 141C180 138.163 180.68 134.109 178.972 131.634C175.746 126.959 166.855 123.922 162 121.15C157.557 118.614 151.41 113.301 146 114.859M0 140L0 300L150 300L150 299C131.909 297.421 122.881 284.271 108 277.032C102.513 274.362 92.1921 277.232 86 276.961C75.3334 276.493 64.2275 272.85 55 267.571C32.3454 254.611 16.1934 230.394 15.0394 204C14.6753 195.674 19.3573 185.793 18.1111 178C17.2169 172.408 11.0152 166.95 8.3125 162C4.49141 155.001 3.40871 147.036 0 140M195 141L195 204C195 211.369 197.128 222.703 192.486 228.957C188.331 234.554 179.944 237.899 174 241.281C159.755 249.384 140.946 256.814 129 268C157.284 286.715 197.67 282.186 213.508 249C220.99 233.321 219 215.875 219 199L219 168C219 164.146 220.166 157.911 217.972 154.529C214.23 148.761 201.33 143.304 195 141M179 186C161.272 196.85 142.857 206.566 125 217.201C119.021 220.761 109.26 228.991 102 228.282C95.4789 227.646 88.4978 221.861 83 218.603C68.7493 210.159 52.7715 197.991 37 193C30.3404 228.872 63.1642 259.313 98 255.829C116.065 254.023 131.672 241.9 147 233.15C156.197 227.9 171.531 222.48 178.397 214.39C182.249 209.851 181.207 191.26 179 186M295 186C293.998 207.921 275.973 228.839 258 239.547C252.013 243.114 241.654 244.188 236.818 248.843C232.132 253.354 229.881 262.503 225.96 268C214.985 283.383 196.419 297.414 177 299L177 300L296 300L296 221L295 186z"/>
</svg>
